# xmcd
#
# Track frame offsets: 
#        150
#        11187
#        27115
#        45135
#        66607
#        79812
#        98477
#        110717
#        130500
#        142937
#
# Disc length: 2138 seconds
#
# Revision: 2
# Processed by: cddbd v1.5.2PL0 Copyright (c) Steve Scherf et al.
# Submitted via: ExactAudioCopy v0.99pb4
#
DISCID=7908580a
DTITLE=Lasy Lester - Harp and Soul
DYEAR=1988
DGENRE=Blues
TTITLE0=I Done Got Over It
TTITLE1=Take Me In Your Arms
TTITLE2=I'm A Man
TTITLE3=Patrol Wagon Blues
TTITLE4=Dark End Of The Street
TTITLE5=Raining In My Heart
TTITLE6=Bye Bye Baby
TTITLE7=Bloodstains on The Wall
TTITLE8=Alligator Shuffle
TTITLE9=Five Long Years
EXTD=
EXTT0=
EXTT1=
EXTT2=
EXTT3=
EXTT4=
EXTT5=
EXTT6=
EXTT7=
EXTT8=
EXTT9=
PLAYORDER=
